<svg width="24" height="24" viewBox="0 0 24 24" fill="none" xmlns="http://www.w3.org/2000/svg">
<g id="&#226;&#134;&#179; &#240;&#159;&#147;&#141;icon " clip-path="url(#clip0_1_562)">
<path id="Vector" d="M22 5.71995L17.4 1.85995L16.11 3.38995L20.71 7.24995L22 5.71995ZM7.88 3.38995L6.6 1.85995L2 5.70995L3.29 7.23995L7.88 3.38995ZM12 3.99995C7.03 3.99995 3 8.02995 3 13C3 17.97 7.02 22 12 22C16.97 22 21 17.97 21 13C21 8.02995 16.97 3.99995 12 3.99995ZM12 20C8.13 20 5 16.87 5 13C5 9.12995 8.13 5.99995 12 5.99995C15.87 5.99995 19 9.12995 19 13C19 16.87 15.87 20 12 20ZM10.54 14.53L8.41 12.4L7.35 13.46L10.53 16.64L16.53 10.64L15.47 9.57995L10.54 14.53V14.53Z" fill="black" fill-opacity="0.87"/>
</g>
<defs>
<clipPath id="clip0_1_562">
<rect width="24" height="24" fill="white"/>
</clipPath>
</defs>
</svg>
